<svg width="27" height="37" viewBox="0 0 27 37" fill="none" xmlns="http://www.w3.org/2000/svg">
<path d="M15.4718 20.3432L21.0213 27.4631C22.3009 29.1049 21.131 31.5 19.0495 31.5H7.95054C5.86899 31.5 4.6991 29.1049 5.97873 27.4631L11.5282 20.3432C12.5291 19.059 14.4709 19.059 15.4718 20.3432Z" stroke="#AEAEC0" stroke-linejoin="round"/>
<path d="M11.5282 16.6568L5.97873 9.53687C4.6991 7.8951 5.86899 5.5 7.95054 5.5L19.0495 5.5C21.131 5.5 22.3009 7.8951 21.0213 9.53687L15.4718 16.6568C14.4709 17.941 12.5291 17.941 11.5282 16.6568Z" stroke="#AEAEC0" stroke-linejoin="round"/>
<path d="M19.5 26H7L5.5 29L7 31H20.5L21.5 29L19.5 26Z" fill="#AEAEC0"/>
<path d="M16.5 15H10.5L11.5 16.5L13.5 17.5L15.5 16.5L16.5 15Z" fill="#AEAEC0"/>
</svg>
